<?xml version="1.0" encoding="iso-8859-1"?>
<svg fill="#000000" height="800px" width="800px" version="1.1" xmlns="http://www.w3.org/2000/svg" xmlns:xlink="http://www.w3.org/1999/xlink"
	 viewBox="0 0 512.002 512.002" xml:space="preserve">
<g>
	<g>
		<g>
			<circle cx="217.398" cy="65.121" r="6.558"/>
			<path d="M294.607,71.679c3.618,0,6.556-2.936,6.556-6.557c0-3.622-2.938-6.558-6.556-6.558c-3.62,0-6.558,2.937-6.558,6.558
				C288.049,68.743,290.987,71.679,294.607,71.679z"/>
			<path d="M509.588,108.779c3.218-3.218,3.218-8.436,0-11.653c-15.24-15.24-35.502-23.632-57.055-23.632
				s-41.816,8.392-57.055,23.632l-37.836,37.835c-11.521-9.837-24.479-18.035-38.513-24.235V66.554
				c0-34.808-28.318-63.127-63.127-63.127s-63.127,28.319-63.127,63.127v44.172c-14.034,6.2-26.991,14.398-38.513,24.235
				l-37.836-37.835c-15.24-15.24-35.503-23.632-57.056-23.632c-21.552,0-41.815,8.392-57.055,23.632
				c-3.218,3.218-3.218,8.436,0,11.653l95.463,95.464c2.334,2.334,4.878,4.4,7.596,6.202c-4.042,13.888-6.218,28.563-6.218,43.739
				v50.271c0,11.898,1.34,23.489,3.864,34.635l-52.962,52.963c-31.458,31.459-31.458,82.649,0,114.108
				c1.546,1.546,3.641,2.414,5.828,2.414c2.185,0,4.281-0.868,5.828-2.414l87.234-87.233c22.263,20.812,50.573,35.226,81.979,40.276
				l10.756,27.523c4.133,10.57,10.684,12.148,14.221,12.148c3.538,0,10.089-1.578,14.221-12.149l10.756-27.52
				c31.406-5.051,59.717-19.463,81.979-40.277l87.234,87.233c1.546,1.546,3.641,2.414,5.828,2.414c2.185,0,4.282-0.868,5.828-2.414
				c31.458-31.459,31.458-82.649,0-114.108l-52.962-52.963c2.524-11.146,3.864-22.735,3.864-34.635v-50.271
				c0-15.176-2.176-29.85-6.218-43.739c2.717-1.802,5.262-3.868,7.596-6.202L509.588,108.779z M209.355,66.554
				c0-25.721,20.926-46.646,46.646-46.646s46.646,20.926,46.646,46.646v37.969c-14.741-4.604-30.409-7.087-46.646-7.087
				s-31.905,2.483-46.646,7.087V66.554z M20.269,103.324c25.161-19.424,61.542-17.604,84.602,5.454l37.522,37.521
				c-13.117,13.806-23.745,29.995-31.174,47.837c-0.574-0.5-1.145-1.005-1.688-1.548L20.269,103.324z M56.357,488.306
				c-19.423-25.16-17.604-61.542,5.455-84.601l46.563-46.564c6.616,18.482,16.602,35.374,29.227,49.923L56.357,488.306z
				 M256.001,477.836l-6.559-16.781c2.176,0.089,4.362,0.147,6.559,0.147c2.198,0,4.382-0.057,6.56-0.147L256.001,477.836z
				 M256.001,444.72c-77.343,0-140.265-62.923-140.265-140.266v-50.271c0-77.343,62.923-140.266,140.265-140.266
				s140.265,62.923,140.265,140.266v50.271C396.268,381.797,333.344,444.72,256.001,444.72z M450.192,403.705
				c23.059,23.059,24.878,59.441,5.455,84.601l-81.244-81.244c12.624-14.549,22.61-31.441,29.227-49.923L450.192,403.705z
				 M402.471,192.589c-0.543,0.543-1.114,1.048-1.688,1.548c-7.429-17.843-18.057-34.031-31.173-47.837l37.522-37.521
				c12.126-12.127,28.25-18.805,45.4-18.805c14.372,0,28.022,4.691,39.206,13.345L402.471,192.589z"/>
			<path d="M256.001,124.766c-71.99,0-130.557,58.568-130.557,130.558v47.992c0,71.99,58.568,130.558,130.557,130.558
				s130.557-58.568,130.557-130.558v-47.992C386.559,183.333,327.991,124.766,256.001,124.766z M256.001,141.247
				c21.628,0,41.869,6.05,59.12,16.547l-32.895,59.449h-52.448l-32.895-59.449C214.132,147.297,234.375,141.247,256.001,141.247z
				 M282.326,233.723l26.323,45.596l-26.323,45.596h-52.65l-26.323-45.596l26.323-45.596H282.326z M141.926,255.322
				c0-35.331,16.146-66.961,41.446-87.902l32.081,57.977l-26.372,45.682h-47.155V255.322z M141.926,303.315v-15.756h47.155
				l26.372,45.682l-32.081,57.977C158.072,370.276,141.926,338.646,141.926,303.315z M256.001,417.392
				c-21.628,0-41.869-6.05-59.121-16.547l32.896-59.449h52.448l32.897,59.449C297.871,411.341,277.629,417.392,256.001,417.392z
				 M370.078,303.315c0,35.331-16.145,66.961-41.446,87.902l-32.081-57.977l26.372-45.682h47.155V303.315z M370.078,271.078h-47.155
				l-26.372-45.682l32.081-57.977c25.299,20.941,41.446,52.571,41.446,87.902V271.078z"/>
		</g>
	</g>
</g>
</svg>
